<?xml version="1.0" standalone="no"?><!DOCTYPE svg PUBLIC "-//W3C//DTD SVG 1.1//EN" "http://www.w3.org/Graphics/SVG/1.1/DTD/svg11.dtd"><svg t="1687879125832" class="icon" viewBox="0 0 1024 1024" version="1.1" xmlns="http://www.w3.org/2000/svg" p-id="34325" xmlns:xlink="http://www.w3.org/1999/xlink" width="200" height="200"><path d="M970.6496 766.378667h-148.957867a25.6 25.6 0 0 0-25.6 25.6v47.018666H486.075733A427.844267 427.844267 0 0 0 432.162133 633.173333a307.2 307.2 0 0 0-44.9536-60.074666L598.186667 261.12h135.2704a25.7024 25.7024 0 0 0 25.6-25.6V86.442667a25.6 25.6 0 0 0-25.6-25.6h-148.957867a25.6 25.6 0 0 0-25.6 25.6v136.209066L192.494933 766.446933h-139.093333a25.6 25.6 0 0 0-25.6 25.6v149.009067a25.6 25.6 0 0 0 25.6 25.6h148.974933a25.6 25.6 0 0 0 25.6-25.6v-47.0528h568.064v47.0528a25.6 25.6 0 0 0 25.6 25.6h148.957867a25.6 25.6 0 0 0 25.6-25.6v-148.957867a25.6 25.6 0 0 0-25.6-25.719466zM613.7344 115.729067h90.3168v90.333866h-90.3168zM172.970667 911.650133H82.6368v-90.2656h90.333867z m55.159466-103.0656L360.106667 613.2736a273.681067 273.681067 0 0 1 32.512 45.858133 381.934933 381.934933 0 0 1 46.08 179.9168H228.130133z m713.386667 103.0656h-90.4192v-90.2656h90.368z" fill="#2c2c2c" p-id="34326"></path><path d="M629.060267 658.090667l-11.6736-5.4272a44.151467 44.151467 0 0 1-18.568534-15.854934 48.0256 48.0256 0 0 1-7.594666-24.814933h32.0512a20.736 20.736 0 0 0 3.003733 8.669867 15.7696 15.7696 0 0 0 5.9392 5.444266 18.312533 18.312533 0 0 0 8.379733 1.860267c5.905067 0 10.4448-1.706667 13.653334-4.932267s4.8128-7.901867 4.8128-13.8752v-3.84q0-9.4208-3.908267-14.506666a13.192533 13.192533 0 0 0-11.144533-5.12h-13.943467v-29.883734h13.943467a10.564267 10.564267 0 0 0 9.1136-4.471466c2.1504-2.9696 3.2256-7.150933 3.2256-12.509867v-2.833067a17.476267 17.476267 0 0 0-3.566934-11.7248 12.544 12.544 0 0 0-10.018133-4.130133 14.165333 14.165333 0 0 0-7.645867 2.1504 17.6128 17.6128 0 0 0-5.8368 6.229333 29.730133 29.730133 0 0 0-3.413333 9.847467H593.92a58.760533 58.760533 0 0 1 8.106667-25.992533 45.0048 45.0048 0 0 1 17.6128-16.64 51.0976 51.0976 0 0 1 24.234666-5.717334q21.8624 0 33.809067 11.144534t11.946667 31.658666v4.983467a33.4336 33.4336 0 0 1-22.186667 32.631467 29.013333 29.013333 0 0 1 18.414933 12.458666q6.5024 9.728 6.5024 24.797867V612.693333a49.92 49.92 0 0 1-5.649066 24.576 37.0688 37.0688 0 0 1-16.5376 15.5136 59.016533 59.016533 0 0 1-26.1632 5.3248zM733.252267 645.700267q-12.561067-12.407467-12.561067-34.389334v-74.8544q0-22.186667 12.629333-34.491733t36.642134-12.288q24.1152 0 36.693333 12.219733t12.544 34.56v74.8544q0 22.186667-12.629333 34.491734t-36.642134 12.288q-24.1152 0-36.676266-12.3904z m50.517333-23.893334q4.437333-6.4 4.420267-18.397866V544.426667q0-11.946667-4.420267-18.397867t-13.806933-6.4q-9.4208 0-13.824 6.4T751.7184 544.426667v59.016533q0 11.946667 4.420267 18.397867t13.824 6.4q9.403733-0.0512 13.806933-6.4512zM849.92 548.625067q-9.216-8.874667-9.216-24.866134t9.216-24.917333q9.250133-8.840533 26.231467-8.823467t26.2144 8.823467q9.233067 8.840533 9.233066 25.0368t-9.284266 24.797867q-9.284267 8.823467-26.1632 8.840533T849.92 548.625067z m33.245867-16.5888a12.7488 12.7488 0 0 0 2.491733-8.533334 11.7248 11.7248 0 0 0-2.491733-8.0384 8.96 8.96 0 0 0-7.133867-2.833066 8.533333 8.533333 0 0 0-6.9632 2.884266 12.407467 12.407467 0 0 0-2.440533 8.209067 12.5952 12.5952 0 0 0 2.440533 8.328533 8.533333 8.533333 0 0 0 6.9632 2.884267 8.8064 8.8064 0 0 0 7.185067-2.901333z" fill="#2c2c2c" p-id="34327"></path></svg>