<?xml version="1.0" standalone="no"?><!DOCTYPE svg PUBLIC "-//W3C//DTD SVG 1.1//EN" "http://www.w3.org/Graphics/SVG/1.1/DTD/svg11.dtd"><svg t="1687364171670" class="icon" viewBox="0 0 1024 1024" version="1.1" xmlns="http://www.w3.org/2000/svg" p-id="31237" xmlns:xlink="http://www.w3.org/1999/xlink" width="200" height="200"><path d="M479.5 554.8c10.9 6.5 24.7 7.5 36.9 7.9 19.7 0.6 38.3-13.4 38.3-13.4s9.9-9.2 24.8-30.3c30.6-43.2 84.3-125.7 131.1-205 59.1-100.4 103-204.3 103-204.3s6.8-20.2 5.6-33.4c-0.7-8-9.7-11.9-9.7-11.9s-9.5-1.4-17.2 2.9c-13.1 7.3-32.2 16.5-123.4 127.8-63.5 77.5-141.8 181.4-187.3 240.3-34 44-36.1 74.5-28.9 91.9 1.4 3.2 11.8 18.6 26.8 27.5zM337.5 853.5c28.1-6.7 59.2-15.2 84.5-31 30.9-19.3 53.7-46.7 59.9-60.2 26.7-58.1 13-121.3-38-168.2-30.4-27.9-71.2-29.7-71.2-29.7s-39.2-4.1-65.5 14C263.8 608.3 263 669 262.7 678c-1 27.5 1.2 60.6-15.5 89.6-24.7 42.8-89.3 60.7-89.3 60.7s11 13.3 26.7 21.1c0.1 0.1 49.9 28.5 152.9 4.1zM262.7 903.6c-46 6.6-118.4 15.9-95.4 31.2C426 1026.9 580 838.4 866.1 819.7c-257.6-64.6-371 91.6-603.4 83.9z" fill="#1296db" p-id="31238"></path></svg>