<?xml version="1.0" standalone="no"?><!DOCTYPE svg PUBLIC "-//W3C//DTD SVG 1.1//EN" "http://www.w3.org/Graphics/SVG/1.1/DTD/svg11.dtd"><svg t="1687332283956" class="icon" viewBox="0 0 1024 1024" version="1.1" xmlns="http://www.w3.org/2000/svg" p-id="3214" xmlns:xlink="http://www.w3.org/1999/xlink" width="200" height="200"><path d="M853.333333 768l-85.333333 85.333333-256-256-38.4 178.346667L170.666667 170.666667l605.013333 302.933333L597.333333 512z" p-id="3215" fill="#1296db"></path><path d="M768 870.4a17.015467 17.015467 0 0 1-12.066133-5.000533L522.0864 631.552l-31.7952 147.729067a17.066667 17.066667 0 0 1-31.9488 4.027733l-302.933333-605.013333a17.0496 17.0496 0 0 1 22.903466-22.903467l605.013334 302.933333a17.0496 17.0496 0 0 1-4.027734 31.9488l-147.729066 31.7952 233.847466 233.847467a17.0496 17.0496 0 0 1 0 24.132267l-85.333333 85.333333A17.032533 17.032533 0 0 1 768 870.4zM512 580.266667c4.4544 0 8.823467 1.757867 12.066133 5.000533L768 829.201067 829.201067 768 585.2672 524.066133a17.083733 17.083733 0 0 1 8.465067-28.757333l130.9184-28.177067L208.896 208.896l258.235733 515.754667 28.177067-130.9184A17.066667 17.066667 0 0 1 512 580.266667z" p-id="3216" fill="#1296db"></path></svg>