<?xml version="1.0" standalone="no"?><!DOCTYPE svg PUBLIC "-//W3C//DTD SVG 1.1//EN" "http://www.w3.org/Graphics/SVG/1.1/DTD/svg11.dtd"><svg t="1687332456063" class="icon" viewBox="0 0 1024 1024" version="1.1" xmlns="http://www.w3.org/2000/svg" p-id="11775" xmlns:xlink="http://www.w3.org/1999/xlink" width="200" height="200"><path d="M435.4048 550.8096h42.7008v42.7008L307.3024 764.3136l-42.7008-42.7008z" fill="#1296db" p-id="11776"></path><path d="M391.2704 887.6032H197.0176c-30.72 0-55.7056-24.9856-55.7056-55.6032V637.6448c0-16.5888 9.9328-31.4368 25.1904-37.6832 15.36-6.3488 32.768-2.8672 44.4416 8.9088l209.1008 209.1008a40.4992 40.4992 0 0 1 8.8064 44.4416 40.31488 40.31488 0 0 1-37.5808 25.1904z m-184.9344-65.024H332.8L206.336 696.1152v126.464z m-41.3696-167.8336c0 0.1024 0 0.1024 0 0z" fill="#1296db" p-id="11777"></path><path d="M595.5584 476.16h-42.7008v-42.7008l170.8032-170.9056 42.7008 42.7008z" fill="#1296db" p-id="11778"></path><path d="M850.944 433.2544c-10.0352 0-19.7632-3.8912-27.2384-11.264L607.0272 205.2096a38.59456 38.59456 0 1 1 27.3408-65.8432h199.5776c30.72 0 55.7056 24.9856 55.7056 55.6032v199.68c0 15.6672-9.3184 29.5936-23.7568 35.6352-4.9152 1.9456-9.9328 2.9696-14.9504 2.9696zM698.0608 204.3904l126.464 126.464V204.3904H698.0608z" fill="#1296db" p-id="11779"></path><path d="M158.1056 1006.4896H92.672c-38.7072 0-70.2464-31.5392-70.2464-70.2464v-51.6096c0-17.92 14.5408-32.5632 32.5632-32.5632s32.5632 14.5408 32.5632 32.5632v51.6096c0 2.8672 2.3552 5.2224 5.2224 5.2224h65.4336c17.92 0 32.5632 14.5408 32.5632 32.5632a32.64512 32.64512 0 0 1-32.6656 32.4608zM938.1888 1006.4896h-72.192c-17.92 0-32.5632-14.5408-32.5632-32.5632 0-17.92 14.5408-32.5632 32.5632-32.5632h72.192c2.8672 0 5.2224-2.3552 5.2224-5.2224v-51.6096c0-17.92 14.5408-32.5632 32.5632-32.5632s32.5632 14.5408 32.5632 32.5632v51.6096c-0.1024 38.8096-31.6416 70.3488-70.3488 70.3488z" fill="#1296db" p-id="11780"></path><path d="M975.9744 189.952c-17.92 0-32.5632-14.5408-32.5632-32.5632V90.7264c0-2.8672-2.3552-5.2224-5.2224-5.2224H869.376c-17.92 0-32.5632-14.5408-32.5632-32.5632S851.456 20.48 869.376 20.48h68.8128c38.7072 0 70.2464 31.5392 70.2464 70.2464v66.6624c0 18.0224-14.5408 32.5632-32.4608 32.5632z" fill="#1296db" p-id="11781"></path><path d="M54.9888 191.1808c-17.92 0-32.5632-14.5408-32.5632-32.5632V90.7264C22.4256 52.0192 53.9648 20.48 92.672 20.48h67.9936c17.92 0 32.5632 14.5408 32.5632 32.5632s-14.5408 32.5632-32.5632 32.5632H92.672c-2.8672 0-5.2224 2.3552-5.2224 5.2224v67.9936c0 17.8176-14.5408 32.3584-32.4608 32.3584z" fill="#1296db" p-id="11782"></path></svg>